<?xml version="1.0" standalone="no"?>
<!DOCTYPE svg PUBLIC "-//W3C//DTD SVG 20010904//EN"
 "http://www.w3.org/TR/2001/REC-SVG-20010904/DTD/svg10.dtd">
<svg version="1.0" xmlns="http://www.w3.org/2000/svg"
 width="203.000000pt" height="13.000000pt" viewBox="0 0 203.000000 13.000000"
 preserveAspectRatio="xMidYMid meet">

<g transform="translate(0.000000,13.000000) scale(0.100000,-0.100000)"
fill="#000000" stroke="none">
<path d="M10 60 l0 -60 1008 2 1007 3 0 55 0 55 -1007 3 -1008 2 0 -60z m69 4
c6 4 11 2 11 -4 0 -17 -33 -8 -37 10 -4 12 -3 13 5 1 5 -7 15 -10 21 -7z m721
3 c0 -7 -13 -13 -30 -13 -38 -2 -40 13 -2 19 15 2 28 5 30 6 1 0 2 -5 2 -12z
m95 1 c3 -3 -3 -8 -13 -10 -11 -3 -19 0 -19 7 0 13 21 14 32 3z m-685 -2 c0
-2 -7 -7 -16 -10 -8 -3 -12 -2 -9 4 6 10 25 14 25 6z m510 0 c0 -3 -4 -8 -10
-11 -5 -3 -10 -1 -10 4 0 6 5 11 10 11 6 0 10 -2 10 -4z m130 -6 c0 -5 -5 -10
-11 -10 -5 0 -7 5 -4 10 3 6 8 10 11 10 2 0 4 -4 4 -10z"/>
</g>
</svg>
